# xmcd
#
# Track frame offsets:
#	150
#	22582
#	38555
#	59552
#	79165
#	98135
#	112815
#	134490
#	156472
#	179070
#	198957
#
# Disc length: 2932
#
# Revision: 1
# Processed by: cddbd v1.5.1PL0 Copyright (c) Steve Scherf et al.
# Submitted via: FreeRIP 2.80 
# Normalized: r0:TRMNUM
#
DISCID=8c0b720b
DTITLE=殷正洋 - 殷正洋-世界的鐘
DYEAR=1996
DGENRE=Vocal
TTITLE0=世界的鐘
TTITLE1=飲下我的淚的你的唇
TTITLE2=總想這樣走下去
TTITLE3=等待
TTITLE4=貪戀寂寞
TTITLE5=模糊的夜
TTITLE6=相撞的星
TTITLE7=戀愛再見
TTITLE8=唐人街
TTITLE9=寂寞的起點
TTITLE10=碎片
EXTD=
EXTT0=
EXTT1=
EXTT2=
EXTT3=
EXTT4=
EXTT5=
EXTT6=
EXTT7=
EXTT8=
EXTT9=
EXTT10=
PLAYORDER=
